<svg width="1440" height="1024" viewBox="0 0 1440 1024" fill="none" xmlns="http://www.w3.org/2000/svg">
<g clip-path="url(#clip0)">
<rect width="1440" height="1024" fill="#F6F6FA"/>
<path d="M103.5 209.5C113.5 103.1 202.667 16.5 246 -13.5L1483 -48C1408.17 7.33333 1233 108.2 1131 69C1003.5 20 713 50.5 724 209.5C735 368.5 567 610.5 364.5 527C162 443.5 91 342.5 103.5 209.5Z" fill="#E6E8EF"/>
<path d="M768 519.5C728.8 677.1 506 944.167 399.5 1058L1474 1078V691C1474 691 1154.5 829.5 1258.5 645.5C1341.7 498.3 1232.5 271.5 1167.5 176.5C1063.5 83.5001 866 77.5001 837 189C808 300.5 817 322.5 768 519.5Z" fill="#E6E8EF"/>
</g>
<defs>
<clipPath id="clip0">
<rect width="1440" height="1024" fill="white"/>
</clipPath>
</defs>
</svg>
