<svg height="512" viewBox="0 0 512 512" width="512" xmlns="http://www.w3.org/2000/svg"><g id="filled_outline" data-name="filled outline"><path d="m408 488h-260a44 44 0 0 1 -44-44v-114.94a680 680 0 0 1 15.52-144.452l24.48-112.608h304l-24.48 112.608a680 680 0 0 0 -15.52 144.452z" fill="#eaeae8"/><path d="m152 216h-37l29-144h304l-22 144h-50z" fill="#ff6268"/><circle cx="264" cy="216" fill="#fbb540" r="112"/><path d="m270.21 190v137.82q-3.075.18-6.21.18c-3.3 0-6.57-.14-9.79-.43v-137.57a8 8 0 0 1 16 0z" fill="#ffc864"/><g fill="#eaeae8"><path d="m448 72h-304l.611-48h304z"/><path d="m184 24v24a8 8 0 0 1 -16 0v-24z"/><path d="m216 24v24a8 8 0 0 1 -16 0v-24z"/><path d="m328 24v24a8 8 0 0 1 -16 0v-24z"/><path d="m360 24v24a8 8 0 0 1 -16 0v-24z"/><path d="m392 24v24a8 8 0 0 1 -16 0v-24z"/><path d="m424 24v24a8 8 0 0 1 -16 0v-24z"/></g><path d="m448 72 24.48 112.608a680 680 0 0 1 15.52 144.452v158.94h-80v-158.94a680 680 0 0 1 15.52-144.452z" fill="#cbcbcb"/><path d="m448 440-40 48h80z" fill="#b9b9b9"/><path d="m310.74 317.81a111.635 111.635 0 0 1 -46.74 10.19c-.6 0-1.2 0-1.79-.02v-8.2a32 32 0 0 1 17.69-28.62l30.31-15.16 1.74 31.12a31.946 31.946 0 0 1 -1.21 10.69z" fill="#d18d28"/><path d="m262.213 272v-28.223a32 32 0 0 1 17.69-28.622l30.31-15.155 1.737 31.12a32 32 0 0 1 -22.393 32.322z" fill="#d18d28"/><path d="m270.21 190v137.82q-3.075.18-6.21.18c-3.3 0-6.57-.14-9.79-.43v-137.57a8 8 0 0 1 16 0z" fill="#ea9d2d"/><path d="m262.213 136-13.988 17.485a32.214 32.214 0 0 0 2.376 42.9l11.612 11.615 11.613-11.612a32.216 32.216 0 0 0 2.376-42.9z" fill="#ea9d2d"/><path d="m262.21 319.78v8.2a111.4 111.4 0 0 1 -49.02-12.14 31.6 31.6 0 0 1 -.71-8.72l1.73-31.12 30.31 15.16a31.982 31.982 0 0 1 17.69 28.62z" fill="#ea9d2d"/><path d="m240 24v48l-8 40h48l8-40v-48z" fill="#5ebef7"/><path d="m313.626 400a128.056 128.056 0 0 1 -121.626 88h-32a128.056 128.056 0 0 1 -121.626-88z" fill="#5ebef7"/><path d="m296 400h-240v-32l68.775-55.02a82 82 0 0 1 102.45 0l68.775 55.02z" fill="#fbb540"/><rect fill="#92d1f7" height="32" rx="16" width="304" x="24" y="368"/><circle cx="208" cy="336" fill="#d18d28" r="8"/><circle cx="176" cy="320" fill="#d18d28" r="8"/><circle cx="144" cy="336" fill="#d18d28" r="8"/><path d="m448 457a8 8 0 0 1 -8-8v-73a8 8 0 0 1 16 0v73a8 8 0 0 1 -8 8z" fill="#b9b9b9"/><path d="m448 352a8 8 0 0 1 -8-8v-16a8 8 0 0 1 16 0v16a8 8 0 0 1 -8 8z" fill="#b9b9b9"/><path d="m448 304a8 8 0 0 1 -8-8v-56a8 8 0 0 1 16 0v56a8 8 0 0 1 -8 8z" fill="#b9b9b9"/><path d="m328 24v24a8 8 0 0 1 -16 0v-24z" fill="#cbcbcb"/><path d="m360 24v24a8 8 0 0 1 -16 0v-24z" fill="#cbcbcb"/><path d="m392 24v24a8 8 0 0 1 -16 0v-24z" fill="#cbcbcb"/><path d="m184 24v24a8 8 0 0 1 -16 0v-24z" fill="#cbcbcb"/><path d="m216 24v24a8 8 0 0 1 -16 0v-24z" fill="#cbcbcb"/><path d="m424 24v24a8 8 0 0 1 -16 0v-24z" fill="#cbcbcb"/><path d="m262.213 272v-28.223a32 32 0 0 0 -17.689-28.622l-30.311-15.155-1.736 31.12a32 32 0 0 0 22.393 32.322z" fill="#ea9d2d"/><path d="m240 24h48v48h-48z" fill="#92d1f7"/><path d="m496 485.517v-156.457a689.2 689.2 0 0 0 -15.7-146.151l-24.289-111.717.6-47.09a8 8 0 0 0 -8-8.1h-304a8 8 0 0 0 -8 7.9l-.6 47.193-24.311 111.814a689.2 689.2 0 0 0 -15.678 142.828l-42.828 34.263h-13.194a24 24 0 0 0 -7.748 46.709 135.716 135.716 0 0 0 127.748 89.291h328a8 8 0 0 0 8-8zm-16-156.457v136.84l-24-28.8v-61.1a8 8 0 0 0 -16 0v61.1l-24 28.8v-136.84a673.23 673.23 0 0 1 15.337-142.753l16.663-76.647 16.663 76.647a673.23 673.23 0 0 1 15.337 142.753zm-32 123.44 22.919 27.5h-45.838zm-64.268-244.5a120.039 120.039 0 0 0 -92.974-109l3.8-19h143.516l-22.374 102.909q-2.713 12.491-4.952 25.091zm-113.519 35.777a23.87 23.87 0 0 1 13.267-21.466l19.42-9.711 1.058 18.967a23.976 23.976 0 0 1 -16.8 24.242l-16.954 5.306zm-2.044-53.046-5.956 5.956-5.955-5.956a24.19 24.19 0 0 1 -1.786-32.248l7.741-9.677 7.742 9.677a24.19 24.19 0 0 1 -1.786 32.248zm-13.956 70.383-16.954-5.306a23.977 23.977 0 0 1 -16.794-24.242l1.058-18.967 19.423 9.712a23.868 23.868 0 0 1 13.267 21.466zm-7.122 57.514-14.868-11.895a89.3 89.3 0 0 0 -11.284-7.666l.584-10.468 19.423 9.712a23.862 23.862 0 0 1 13.259 21.216c-2.388-.227-4.764-.515-7.114-.899zm23.122 1.149a23.869 23.869 0 0 1 13.267-21.466l19.42-9.711 1.058 18.967a24.043 24.043 0 0 1 -.19 4.523 103.255 103.255 0 0 1 -33.559 7.72zm49.561-16.034-1.574-28.189a8 8 0 0 0 -11.565-6.709l-30.31 15.155a40.6 40.6 0 0 0 -6.112 3.792v-9.913l21.734-6.8a39.961 39.961 0 0 0 27.991-40.4l-1.738-31.125a8 8 0 0 0 -11.565-6.709l-30.31 15.155a40.6 40.6 0 0 0 -6.112 3.792v-.479l9.269-9.269a40.171 40.171 0 0 0 2.967-53.556l-13.989-17.488a8 8 0 0 0 -12.494 0l-13.988 17.486a40.173 40.173 0 0 0 2.966 53.556l9.269 9.269v.479a40.458 40.458 0 0 0 -6.113-3.79l-30.311-15.155a8 8 0 0 0 -11.565 6.709l-1.737 31.121a39.961 39.961 0 0 0 27.991 40.4l21.733 6.8v9.913a40.458 40.458 0 0 0 -6.111-3.788l-30.311-15.155a8 8 0 0 0 -11.565 6.709l-.915 16.394a90.357 90.357 0 0 0 -16.378-3.974 104.009 104.009 0 0 1 -8.276-134.194 105.055 105.055 0 0 1 46.851-35.174 7.992 7.992 0 0 0 4.494 1.394h48a8 8 0 0 0 7.525-5.3 103.972 103.972 0 0 1 32.249 189.046zm-39.774-271.743v32h-32v-32zm-1.758 48-4.8 24h-31.684l4.8-24zm161.858-16h-144.1v-32h16v16a8 8 0 0 0 16 0v-16h16v16a8 8 0 0 0 16 0v-16h16v16a8 8 0 0 0 16 0v-16h16v16a8 8 0 0 0 16 0v-16h16.508zm-287.59-32h15.49v16a8 8 0 0 0 16 0v-16h16v16a8 8 0 0 0 16 0v-16h16v32h-79.9zm-2.062 48h79.794l-4.448 22.238a121.084 121.084 0 0 0 -57.95 41.959 118.811 118.811 0 0 0 -23.562 63.803h-21.271q1.992-10.882 4.326-21.693zm-30.169 144h23.99a118.863 118.863 0 0 0 23.276 63.428 90.366 90.366 0 0 0 -47.768 19.305l-7.57 6.056a673.919 673.919 0 0 1 8.072-88.789zm9.493 95.227a74 74 0 0 1 92.456 0l50.966 40.773h-194.388zm-89.772 56.773h272a8 8 0 0 1 0 16h-272a8 8 0 0 1 0-16zm120 104a119.757 119.757 0 0 1 -110.029-72h252.058a119.757 119.757 0 0 1 -110.029 72zm159.748-73.291a24 24 0 0 0 -7.748-46.709h-13.194l-30.124-24.1a120.158 120.158 0 0 0 115.045-111.9h24.362a689.19 689.19 0 0 0 -8.089 105.06v150.94h-143.9a135.617 135.617 0 0 0 63.648-73.291z"/><circle cx="208" cy="336" r="8"/><circle cx="176" cy="320" r="8"/><circle cx="144" cy="336" r="8"/><circle cx="232" cy="440" r="8"/><circle cx="160" cy="424" r="8"/><circle cx="192" cy="456" r="8"/><circle cx="120" cy="440" r="8"/><path d="m448 320a8 8 0 0 0 -8 8v16a8 8 0 0 0 16 0v-16a8 8 0 0 0 -8-8z"/><path d="m440 240v56a8 8 0 0 0 16 0v-56a8 8 0 0 0 -16 0z"/></g></svg>